<svg xmlns="http://www.w3.org/2000/svg" width="8.82" height="16.56" viewBox="0 0 8.82 16.56">
  <path id="ic_ar" d="M5.94,3.92q.48,0,1.42-.08T9.3,3.6l.28,2.08q-1,.26-2.16.45a12.721,12.721,0,0,1-2.02.19A4.415,4.415,0,0,1,2,5.03,4.979,4.979,0,0,1,.8,1.5q0-2.82,1.94-3.78A6.443,6.443,0,0,1,2-5.3a5.029,5.029,0,0,1,.75-2.87A4.3,4.3,0,0,1,4.6-9.76a5.418,5.418,0,0,1,2.18-.48,7.754,7.754,0,0,1,1.37.14,8.665,8.665,0,0,1,1.47.4L9.5-7.2a7.273,7.273,0,0,0-2.48-.6,2.453,2.453,0,0,0-1.63.6,2.517,2.517,0,0,0-.71,2.02,3.544,3.544,0,0,0,.88,2.46,11.632,11.632,0,0,1,1.56.15,7.573,7.573,0,0,1,1.2.27V0A9.913,9.913,0,0,0,7.01-.27,9.575,9.575,0,0,0,5.62-.4,2.216,2.216,0,0,0,4.05.13a2.014,2.014,0,0,0-.57,1.55,2.2,2.2,0,0,0,.61,1.63A2.516,2.516,0,0,0,5.94,3.92Z" transform="translate(-0.8 10.24)" fill="#38a0ea"/>
</svg>
