<svg xmlns="http://www.w3.org/2000/svg" width="19.38" height="10.48" viewBox="0 0 19.38 10.48">
  <path id="ic_en" d="M5.16.24A4.3,4.3,0,0,1,1.78-.94,5.715,5.715,0,0,1,.74-4.76,6.512,6.512,0,0,1,1.83-8.88a4.084,4.084,0,0,1,3.39-1.36A4.26,4.26,0,0,1,8.43-9.11,4.709,4.709,0,0,1,9.52-5.72l-.2,1.86H3.44a2.5,2.5,0,0,0,.25,1.07,1.141,1.141,0,0,0,.68.52,4.493,4.493,0,0,0,1.31.15q.66,0,1.58-.04T8.6-2.24l.56-.06L9.2-.32A17,17,0,0,1,5.16.24ZM6.88-5.9a2.791,2.791,0,0,0-.37-1.67A1.58,1.58,0,0,0,5.2-8.04a1.664,1.664,0,0,0-1.36.49A2.715,2.715,0,0,0,3.42-5.9ZM11.44-10H14.1v.56a6.643,6.643,0,0,1,1.35-.62,4.332,4.332,0,0,1,1.27-.18,2.9,2.9,0,0,1,2.62,1.18,6.712,6.712,0,0,1,.78,3.64V0H17.44V-5.34a4.092,4.092,0,0,0-.33-1.94,1.327,1.327,0,0,0-1.25-.56,4.81,4.81,0,0,0-1.5.28l-.24.08V0H11.44Z" transform="translate(-0.74 10.24)" fill="#38a0ea"/>
</svg>
