<svg xmlns="http://www.w3.org/2000/svg" width="28.632" height="28.632" viewBox="0 0 28.632 28.632">
  <path id="ic_earth" d="M16.316,2A14.316,14.316,0,1,0,30.632,16.316,14.321,14.321,0,0,0,16.316,2ZM14.884,27.668A11.436,11.436,0,0,1,4.863,16.316a11.621,11.621,0,0,1,.3-2.563l6.857,6.857v1.432a2.872,2.872,0,0,0,2.863,2.863Zm9.878-3.636a2.84,2.84,0,0,0-2.72-1.99H20.611V17.747a1.436,1.436,0,0,0-1.432-1.432H10.59V13.453h2.863a1.436,1.436,0,0,0,1.432-1.432V9.158h2.863a2.872,2.872,0,0,0,2.863-2.863V5.708a11.427,11.427,0,0,1,4.152,18.324Z" transform="translate(-2 -2)" fill="#60bbfb"/>
</svg>
