<svg xmlns="http://www.w3.org/2000/svg" width="80" height="80" viewBox="0 0 80 80">
  <g id="ic_face_login" transform="translate(-1789 -45)">
    <rect id="sids_bar" width="80" height="80" rx="35" transform="translate(1789 45)" fill="#fff"/>
    <path id="ic_face_24px" d="M23.28,31.64a3.8,3.8,0,1,0,3.8,3.8A3.8,3.8,0,0,0,23.28,31.64Zm18.24,0a3.8,3.8,0,1,0,3.8,3.8A3.8,3.8,0,0,0,41.52,31.64ZM32.4,2A30.4,30.4,0,1,0,62.8,32.4,30.411,30.411,0,0,0,32.4,2Zm0,54.72A24.352,24.352,0,0,1,8.08,32.4a24.647,24.647,0,0,1,.152-2.614A30.588,30.588,0,0,0,24.07,13.461,30.321,30.321,0,0,0,48.877,26.32a29.671,29.671,0,0,0,6.84-.79A24.283,24.283,0,0,1,32.4,56.72Z" transform="translate(1796.6 51)" fill="#006ae0"/>
  </g>
</svg>
