<svg xmlns="http://www.w3.org/2000/svg" width="77" height="68" viewBox="0 0 77 68">
  <g id="ic_lock_login" transform="translate(-761 -536)">
    <rect id="Rectangle_99" data-name="Rectangle 99" width="77" height="68" rx="10" transform="translate(761 536)" fill="#60bbfb"/>
    <path id="ic_https_24px" d="M18,8H17V6A5,5,0,0,0,7,6V8H6a2.006,2.006,0,0,0-2,2V20a2.006,2.006,0,0,0,2,2H18a2.006,2.006,0,0,0,2-2V10A2.006,2.006,0,0,0,18,8Zm-6,9a2,2,0,1,1,2-2A2.006,2.006,0,0,1,12,17Zm3.1-9H8.9V6a3.1,3.1,0,0,1,6.2,0Z" transform="translate(787.419 559)" fill="#eff7fd"/>
  </g>
</svg>
