<svg xmlns="http://www.w3.org/2000/svg" width="22.727" height="24" viewBox="0 0 22.727 24">
  <path id="ic_navbar_admin" d="M18,24H2V22H18v2h0ZM2,20a2,2,0,0,1-2-2V6A2,2,0,0,1,2,4H17.309l-.125.873a4.616,4.616,0,0,0-1.031.6l-1.519-.61a.3.3,0,0,0-.111-.021.3.3,0,0,0-.261.156L13.042,7.1a.3.3,0,0,0,.074.391L14.4,8.5a4.792,4.792,0,0,0-.043.6,4.837,4.837,0,0,0,.043.6L13.116,10.7a.309.309,0,0,0-.074.391l1.22,2.111a.3.3,0,0,0,.266.152.306.306,0,0,0,.106-.018L16,12.79V13h.544a4.288,4.288,0,0,0,.64.327l.232,1.616a.3.3,0,0,0,.3.257H20V18a2,2,0,0,1-2,2Zm3-4.5V17H15V15.5c0-1.642-3.255-2.5-5-2.5S5,13.858,5,15.5ZM7.75,9A2.25,2.25,0,1,0,10,6.75,2.253,2.253,0,0,0,7.75,9Zm10.4,4a.19.19,0,0,1-.191-.164L17.815,11.8a2.841,2.841,0,0,1-.66-.382l-.971.391a.2.2,0,0,1-.238-.086l-.78-1.349a.2.2,0,0,1,.047-.25l.823-.643a2.63,2.63,0,0,1,0-.764l-.823-.644a.194.194,0,0,1-.047-.25l.78-1.349a.19.19,0,0,1,.238-.086l.971.39a3.047,3.047,0,0,1,.66-.382l.149-1.033a.19.19,0,0,1,.191-.164h1.56a.19.19,0,0,1,.192.164L20.054,6.4a2.881,2.881,0,0,1,.659.382l.971-.39a.2.2,0,0,1,.238.086l.78,1.349a.2.2,0,0,1-.047.25l-.823.644a2.716,2.716,0,0,1,0,.764l.823.643a.2.2,0,0,1,.047.25l-.78,1.349a.189.189,0,0,1-.238.086l-.971-.391a2.984,2.984,0,0,1-.659.382l-.149,1.033a.19.19,0,0,1-.192.164Zm-.585-3.9a1.365,1.365,0,1,0,1.365-1.365A1.366,1.366,0,0,0,17.569,9.1ZM18,2H2V0H18V2h0Z" fill="#eff7fd"/>
</svg>
