<svg xmlns="http://www.w3.org/2000/svg" width="28.659" height="28.659" viewBox="0 0 28.659 28.659">
  <path id="ic_pallet" d="M17.329,3a14.329,14.329,0,0,0,0,28.659,2.389,2.389,0,0,0,1.767-4A2.379,2.379,0,0,1,20.88,23.7H23.7a7.964,7.964,0,0,0,7.961-7.961C31.659,8.7,25.242,3,17.329,3ZM8.572,17.329a2.388,2.388,0,1,1,2.388-2.388A2.385,2.385,0,0,1,8.572,17.329Zm4.776-6.369a2.388,2.388,0,1,1,2.388-2.388A2.385,2.385,0,0,1,13.349,10.961Zm7.961,0A2.388,2.388,0,1,1,23.7,8.572,2.385,2.385,0,0,1,21.31,10.961Zm4.776,6.369a2.388,2.388,0,1,1,2.388-2.388A2.385,2.385,0,0,1,26.086,17.329Z" transform="translate(-3 -3)" fill="#60bbfb"/>
</svg>
