<svg xmlns="http://www.w3.org/2000/svg" width="77" height="68" viewBox="0 0 77 68">
  <g id="ic_user_login" transform="translate(-761 -441)">
    <rect id="Rectangle_100" data-name="Rectangle 100" width="77" height="68" rx="10" transform="translate(761 441)" fill="#60bbfb"/>
    <path id="ic_account_circle_24px" d="M12,2A10,10,0,1,0,22,12,10,10,0,0,0,12,2Zm0,3A3,3,0,1,1,9,8,3,3,0,0,1,12,5Zm0,14.2a7.2,7.2,0,0,1-6-3.22c.03-1.99,4-3.08,6-3.08s5.97,1.09,6,3.08A7.2,7.2,0,0,1,12,19.2Z" transform="translate(788 464)" fill="#eff7fd"/>
  </g>
</svg>
